<?xml version="1.0" standalone="no"?>
<!DOCTYPE svg PUBLIC "-//W3C//DTD SVG 20010904//EN"
 "http://www.w3.org/TR/2001/REC-SVG-20010904/DTD/svg10.dtd">
<svg version="1.0" xmlns="http://www.w3.org/2000/svg"
 width="1280.000000pt" height="1182.000000pt" viewBox="0 0 1280.000000 1182.000000"
 preserveAspectRatio="xMidYMid meet">
<metadata>
Created by potrace 1.15, written by Peter Selinger 2001-2017
</metadata>
<g transform="translate(0.000000,1182.000000) scale(0.100000,-0.100000)"
fill="#000000" stroke="none">
<path d="M8820 11813 c-409 -24 -868 -143 -1215 -316 -115 -57 -109 -53 -101
-66 4 -6 40 7 94 33 302 152 628 249 1012 303 177 25 708 25 895 0 696 -93
1264 -292 1750 -616 134 -89 161 -103 153 -80 -13 39 -394 267 -614 368 -599
273 -1331 412 -1974 374z"/>
<path d="M3335 11799 c-627 -44 -1201 -221 -1686 -522 -798 -493 -1334 -1282
-1559 -2291 -107 -481 -117 -1009 -29 -1501 11 -60 22 -123 25 -140 3 -16 20
-93 39 -170 216 -894 735 -1843 1559 -2850 645 -788 1576 -1715 2651 -2639
127 -109 248 -214 270 -233 22 -20 171 -144 330 -277 705 -588 1444 -1179
1459 -1168 6 5 157 119 336 252 1697 1271 3014 2453 4003 3593 128 147 150
177 129 177 -5 0 -82 -84 -172 -186 -691 -789 -1487 -1554 -2480 -2383 -482
-403 -884 -720 -1483 -1171 -312 -234 -340 -253 -359 -241 -50 31 -902 719
-1318 1065 -2690 2231 -4138 3922 -4735 5525 -74 199 -185 588 -210 731 -2 14
-11 66 -19 115 -50 295 -70 718 -47 986 77 881 431 1694 991 2273 63 65 162
160 220 209 58 50 110 95 115 100 32 28 256 179 347 233 420 249 886 402 1438
471 223 28 756 25 975 -5 406 -54 780 -163 1078 -313 31 -16 57 -26 57 -22 0
5 4 3 8 -3 4 -5 39 -27 77 -49 362 -199 727 -508 988 -837 l61 -76 28 39 c136
188 394 449 618 624 94 74 302 213 395 265 74 41 71 38 59 50 -12 12 -201 -99
-349 -204 -218 -154 -516 -433 -674 -631 -36 -44 -67 -84 -71 -88 -4 -4 -40
32 -81 80 -454 543 -1018 908 -1689 1093 -380 105 -865 150 -1295 119z"/>
<path d="M8738 11770 c-799 -77 -1491 -409 -2043 -981 -102 -106 -229 -252
-282 -324 l-22 -30 -17 24 c-107 150 -392 443 -569 585 -432 346 -943 574
-1505 671 -180 31 -336 45 -570 52 -1272 33 -2345 -473 -3017 -1423 -107 -151
-188 -291 -284 -489 -195 -403 -312 -809 -371 -1285 -8 -67 -13 -219 -13 -415
1 -341 14 -486 76 -790 215 -1074 863 -2214 1957 -3445 265 -298 411 -450 781
-820 503 -502 994 -953 1626 -1495 371 -318 671 -567 1185 -986 211 -172 710
-569 715 -569 7 0 669 499 921 695 1586 1235 2846 2428 3742 3543 925 1151
1488 2266 1656 3277 50 296 70 709 47 973 -104 1244 -764 2251 -1831 2796
-420 215 -852 345 -1385 417 -168 23 -641 34 -797 19z m717 -874 c390 -54 715
-151 1030 -306 285 -140 457 -262 676 -480 80 -80 173 -181 206 -225 268 -356
429 -740 504 -1205 30 -181 37 -551 15 -760 -88 -833 -509 -1763 -1249 -2760
-729 -982 -1796 -2055 -3157 -3176 -383 -315 -1059 -844 -1078 -844 -21 0
-884 710 -1362 1121 -1923 1651 -3077 2955 -3678 4159 -239 476 -371 879 -439
1335 -28 187 -25 650 5 840 83 531 291 1020 593 1395 42 52 130 147 195 210
196 190 372 312 629 436 306 148 614 230 999 265 182 17 562 6 734 -20 660
-101 1183 -403 1594 -919 129 -163 234 -334 418 -682 56 -107 119 -226 140
-265 21 -38 65 -123 100 -188 34 -65 63 -117 65 -115 1 2 89 167 195 368 244
463 286 537 386 690 421 642 1027 1040 1719 1129 44 6 94 13 110 15 76 10 537
-2 650 -18z"/>
<path d="M8845 10899 c-716 -59 -1312 -399 -1762 -1004 -132 -178 -194 -285
-492 -850 -104 -198 -193 -361 -198 -362 -4 -1 -96 165 -203 369 -241 459
-321 602 -418 743 -385 563 -920 922 -1559 1045 -258 50 -646 67 -908 40 -592
-60 -1077 -258 -1481 -603 -358 -306 -634 -751 -783 -1261 -157 -537 -167
-1048 -31 -1612 79 -328 185 -609 367 -974 608 -1221 1779 -2537 3773 -4241
381 -325 1236 -1029 1251 -1029 22 0 944 729 1249 987 14 12 75 63 135 114
1518 1284 2656 2525 3322 3624 680 1124 915 2130 703 3015 -155 644 -503 1152
-1030 1502 -158 105 -421 238 -603 303 -412 147 -951 226 -1332 194z m570 -43
c416 -54 771 -160 1100 -330 123 -63 310 -179 370 -227 220 -180 338 -299 459
-459 263 -349 422 -745 492 -1225 22 -145 25 -558 6 -705 -71 -551 -229 -1026
-533 -1611 -611 -1172 -1764 -2495 -3384 -3882 -115 -99 -232 -199 -260 -223
-192 -164 -813 -661 -1117 -892 l-147 -112 -272 221 c-1759 1428 -2940 2548
-3768 3574 -688 852 -1133 1657 -1316 2385 -73 291 -100 502 -100 795 0 242
11 357 55 575 172 856 660 1522 1359 1857 564 270 1284 344 1931 198 449 -101
840 -321 1165 -656 258 -266 350 -408 729 -1130 102 -196 192 -364 200 -374
11 -15 35 26 206 351 327 625 419 779 593 994 106 132 314 335 437 427 377
283 733 416 1245 467 82 8 434 -4 550 -18z"/>
<path d="M11415 11059 c-4 -5 -5 -12 -4 -13 2 -2 51 -41 109 -87 127 -100 334
-301 438 -424 452 -538 722 -1186 797 -1920 17 -164 19 -541 4 -705 -63 -703
-298 -1417 -715 -2177 -267 -485 -654 -1048 -1062 -1543 -78 -94 -116 -149
-110 -155 11 -12 1 -23 209 236 1179 1471 1751 2829 1716 4079 -25 902 -360
1729 -947 2344 -164 170 -422 387 -435 365z"/>
</g>
</svg>
